<svg xmlns="http://www.w3.org/2000/svg" width="1200" height="700">
<rect width="1200" height="700" fill="#f7f8fa"/>
<text x="55" y="65" font-family="Arial" font-size="30" font-weight="700">RETENTION PRIORITIZATION</text>
<text x="55" y="95" font-family="Arial" font-size="15" fill="#6b7078">Historical churn captured inside the highest-risk customer groups</text>
<rect x="55" y="135" width="1090" height="485" rx="12" fill="white" stroke="#e1e4e8"/>
<line x1="125" y1="545" x2="1080" y2="545" stroke="#aeb4bb"/><line x1="125" y1="225" x2="125" y2="545" stroke="#aeb4bb"/>
<circle cx="180" cy="489.7" r="7" fill="#343a40"/><text x="180" y="570" text-anchor="middle" font-family="Arial" font-size="14">5%</text><text x="180" y="469.7" text-anchor="middle" font-family="Arial" font-size="13" font-weight="700">15.8%</text><circle cx="355" cy="445.6" r="7" fill="#343a40"/><text x="355" y="570" text-anchor="middle" font-family="Arial" font-size="14">10%</text><text x="355" y="425.6" text-anchor="middle" font-family="Arial" font-size="13" font-weight="700">28.4%</text><circle cx="530" cy="378.4" r="7" fill="#343a40"/><text x="530" y="570" text-anchor="middle" font-family="Arial" font-size="14">20%</text><text x="530" y="358.4" text-anchor="middle" font-family="Arial" font-size="13" font-weight="700">47.6%</text><circle cx="705" cy="328.70000000000005" r="7" fill="#343a40"/><text x="705" y="570" text-anchor="middle" font-family="Arial" font-size="14">30%</text><text x="705" y="308.70000000000005" text-anchor="middle" font-family="Arial" font-size="13" font-weight="700">61.8%</text><circle cx="880" cy="252.05" r="7" fill="#343a40"/><text x="880" y="570" text-anchor="middle" font-family="Arial" font-size="14">50%</text><text x="880" y="232.05" text-anchor="middle" font-family="Arial" font-size="13" font-weight="700">83.7%</text>
<polyline points="180,489.7 355,445.6 530,378.4 705,328.7 880,252.1" fill="none" stroke="#343a40" stroke-width="4"/>
<text x="125" y="205" font-family="Arial" font-size="14" fill="#6b7078">Share of churn captured</text>
<text x="125" y="610" font-family="Arial" font-size="14" fill="#6b7078">Capacity →</text>
<text x="650" y="610" font-family="Arial" font-size="14" fill="#6b7078">This is the bridge from model quality to an operational retention decision.</text>
</svg>